<svg width="46" height="46" viewBox="0 0 46 46" fill="none" xmlns="http://www.w3.org/2000/svg">
<path fill-rule="evenodd" clip-rule="evenodd" d="M25.0068 6.94481V0.923828H20.9928V6.94481H14.9718C7.21279 6.94481 0.922852 13.2347 0.922852 20.9938V38.8132C0.922852 42.273 3.72756 45.0777 7.18732 45.0777C8.84876 45.0777 10.4422 44.4178 11.617 43.2428L19.8172 35.0427H26.1823L34.3826 43.2428C35.5574 44.4178 37.1507 45.0777 38.8122 45.0777C42.272 45.0777 45.0767 42.273 45.0767 38.8132V20.9938C45.0767 13.2347 38.7868 6.94481 31.0277 6.94481H25.0068ZM41.0627 20.9938C41.0627 15.4516 36.57 10.9588 31.0277 10.9588H14.9718C9.42964 10.9588 4.93684 15.4516 4.93684 20.9938V38.8132C4.93684 40.0562 5.9444 41.0637 7.18732 41.0637C7.78417 41.0637 8.35659 40.8266 8.77865 40.4046L18.1544 31.0287H27.8452L37.2208 40.4046C37.6431 40.8266 38.2155 41.0637 38.8122 41.0637C40.0552 41.0637 41.0627 40.0562 41.0627 38.8132V20.9938ZM8.95082 25.0077V20.9938H12.9648V16.9798H16.9788V20.9938H20.9928V25.0077H16.9788V29.0217H12.9648V25.0077H8.95082ZM31.0277 19.9903C31.0277 21.6529 29.6799 23.0008 28.0173 23.0008C26.3547 23.0008 25.0068 21.6529 25.0068 19.9903C25.0068 18.3277 26.3547 16.9798 28.0173 16.9798C29.6799 16.9798 31.0277 18.3277 31.0277 19.9903ZM34.0382 29.0217C35.7008 29.0217 37.0487 27.6738 37.0487 26.0112C37.0487 24.3486 35.7008 23.0008 34.0382 23.0008C32.3756 23.0008 31.0277 24.3486 31.0277 26.0112C31.0277 27.6738 32.3756 29.0217 34.0382 29.0217Z" fill="#35D9FD"/>
</svg>
