<svg width="28" height="28" viewBox="0 0 28 28" fill="none" xmlns="http://www.w3.org/2000/svg">
<path d="M1.75 14C1.75 17.2489 3.04062 20.3647 5.33794 22.6621C7.63526 24.9594 10.7511 26.25 14 26.25C17.2489 26.25 20.3647 24.9594 22.6621 22.6621C24.9594 20.3647 26.25 17.2489 26.25 14C26.25 10.7511 24.9594 7.63526 22.6621 5.33794C20.3647 3.04062 17.2489 1.75 14 1.75C10.7511 1.75 7.63526 3.04062 5.33794 5.33794C3.04062 7.63526 1.75 10.7511 1.75 14Z" fill="#23BC29"/>
<path d="M20.1833 8.51758L12.25 16.4509L8.98331 13.1842L7.34998 14.8176L12.25 19.7176L21.8166 10.1509L20.1833 8.51758Z" fill="white"/>
</svg>
