<svg width="26" height="26" viewBox="0 0 26 26" fill="none" xmlns="http://www.w3.org/2000/svg">
<path d="M13 0.75C6.245 0.75 0.75 6.245 0.75 13C0.75 19.755 6.245 25.25 13 25.25C19.755 25.25 25.25 19.755 25.25 13C25.25 6.245 19.755 0.75 13 0.75ZM13 23.493C10.2179 23.4902 7.55062 22.3838 5.5834 20.4166C3.61618 18.4494 2.50978 15.7821 2.507 13C2.50978 10.2179 3.61618 7.55062 5.5834 5.5834C7.55062 3.61618 10.2179 2.50978 13 2.507C15.7821 2.50978 18.4494 3.61618 20.4166 5.5834C22.3838 7.55062 23.4902 10.2179 23.493 13C23.4898 15.7819 22.3832 18.449 20.4161 20.4161C18.449 22.3832 15.7819 23.4898 13 23.493ZM13 5.9475C11.9848 5.94378 11.0095 6.34303 10.2884 7.05763C9.56721 7.77223 9.15906 8.74377 9.1535 9.759C9.1535 9.99222 9.24615 10.2159 9.41106 10.3808C9.57598 10.5457 9.79965 10.6384 10.0329 10.6384C10.2661 10.6384 10.4898 10.5457 10.6547 10.3808C10.8196 10.2159 10.9123 9.99222 10.9123 9.759C10.9123 8.6075 11.8293 7.7045 13 7.7045C14.1515 7.7045 15.0877 8.6495 15.0877 9.80975C15.0877 10.2472 14.4612 10.8755 13.9065 11.4285C13.07 12.265 12.1215 13.2135 12.1215 14.484V15.7387C12.1215 15.8541 12.1442 15.9684 12.1884 16.0749C12.2325 16.1815 12.2972 16.2784 12.3788 16.3599C12.4604 16.4415 12.5572 16.5062 12.6638 16.5504C12.7704 16.5945 12.8846 16.6173 13 16.6173C13.1154 16.6173 13.2296 16.5945 13.3362 16.5504C13.4428 16.5062 13.5396 16.4415 13.6212 16.3599C13.7028 16.2784 13.7675 16.1815 13.8116 16.0749C13.8558 15.9684 13.8785 15.8541 13.8785 15.7387V14.484C13.8785 13.9415 14.526 13.294 15.149 12.671C15.9435 11.8765 16.8465 10.9753 16.8465 9.80975C16.8474 8.78786 16.443 7.80732 15.7219 7.08326C15.0008 6.3592 14.0219 5.95074 13 5.9475ZM11.6823 19.6448C11.6823 19.9942 11.8211 20.3294 12.0682 20.5765C12.3153 20.8237 12.6505 20.9625 13 20.9625C13.3495 20.9625 13.6847 20.8237 13.9318 20.5765C14.1789 20.3294 14.3178 19.9942 14.3178 19.6448C14.3178 19.2953 14.1789 18.9601 13.9318 18.713C13.6847 18.4658 13.3495 18.327 13 18.327C12.6505 18.327 12.3153 18.4658 12.0682 18.713C11.8211 18.9601 11.6823 19.2953 11.6823 19.6448Z" fill="#2ED9FF"/>
</svg>
