<svg width="47" height="44" viewBox="0 0 47 44" fill="none" xmlns="http://www.w3.org/2000/svg">
<path d="M22.2535 4.72026C22.7894 3.52702 23.0575 2.9304 23.4308 2.74667C23.7549 2.58705 24.1355 2.58705 24.4596 2.74667C24.8329 2.9304 25.101 3.52702 25.6369 4.72026L29.9062 14.2246C30.0648 14.5773 30.144 14.7537 30.2667 14.8888C30.375 15.0083 30.5077 15.1039 30.6557 15.1693C30.823 15.2433 31.0166 15.2636 31.4037 15.3041L41.8322 16.3963C43.1414 16.5334 43.7959 16.602 44.0874 16.8974C44.3405 17.154 44.4581 17.5133 44.4053 17.8686C44.3446 18.2775 43.8557 18.7147 42.8777 19.5894L35.0877 26.5557C34.7987 26.8141 34.654 26.9435 34.5626 27.1008C34.4816 27.2403 34.4309 27.3949 34.414 27.5548C34.3947 27.7356 34.435 27.9245 34.5158 28.3024L36.6917 38.4816C36.9649 39.7597 37.1015 40.3986 36.9084 40.7648C36.7405 41.0833 36.4326 41.3052 36.0758 41.3651C35.6651 41.4341 35.0949 41.1078 33.9544 40.4551L24.8706 35.256C24.5335 35.0631 24.365 34.9668 24.1858 34.9289C24.0272 34.8956 23.8632 34.8956 23.7047 34.9289C23.5255 34.9668 23.3569 35.0631 23.0198 35.256L13.9361 40.4551C12.7956 41.1078 12.2254 41.4341 11.8147 41.3651C11.4579 41.3052 11.1499 41.0833 10.9821 40.7648C10.7891 40.3986 10.9257 39.7597 11.1988 38.4816L13.3746 28.3024C13.4553 27.9245 13.4957 27.7356 13.4765 27.5548C13.4596 27.3949 13.4089 27.2403 13.3279 27.1008C13.2363 26.9435 13.0918 26.8141 12.8027 26.5557L5.01282 19.5894C4.03485 18.7147 3.54585 18.2775 3.48505 17.8686C3.43226 17.5133 3.5499 17.154 3.80305 16.8974C4.09449 16.602 4.74912 16.5334 6.05838 16.3963L16.4868 15.3041C16.8739 15.2636 17.0674 15.2433 17.2347 15.1693C17.3828 15.1039 17.5154 15.0083 17.6239 14.8888C17.7464 14.7537 17.8257 14.5773 17.9841 14.2246L22.2535 4.72026Z" stroke="#35D9FD" stroke-width="5" stroke-linecap="round" stroke-linejoin="round"/>
</svg>
