<svg width="32" height="32" viewBox="0 0 32 32" fill="none" xmlns="http://www.w3.org/2000/svg">
<path d="M22.0104 31.9525C21.0588 31.9525 20.1672 31.4329 19.7213 30.5858C19.6475 30.452 19.5876 30.289 19.543 30.1553L15.8718 19.1724C15.5444 18.2361 15.7826 17.1953 16.496 16.4973C17.2093 15.784 18.2347 15.5458 19.171 15.8732L30.1539 19.5444C30.2723 19.589 30.4507 19.6335 30.629 19.752C31.4914 20.2131 32.0264 21.2079 31.9373 22.2486C31.8481 23.3033 31.164 24.1504 30.1539 24.4778L26.0676 25.8446C25.9491 25.8892 25.8739 25.963 25.8293 26.0828L24.4626 30.1692C24.1351 31.1654 23.288 31.848 22.2334 31.9372H21.9951L22.0104 31.9525ZM18.3239 17.9533C18.2055 17.9533 18.1163 18.0132 18.0717 18.0578C18.0118 18.1177 17.9227 18.2514 17.9826 18.4437L21.6538 29.4405C21.7875 29.7233 21.9812 29.708 22.0397 29.708C22.2027 29.708 22.3072 29.6035 22.3518 29.4558L23.7185 25.3541C23.986 24.567 24.5809 23.972 25.3681 23.7199L29.4545 22.3531C29.6175 22.3085 29.6927 22.1901 29.7067 22.041C29.7067 21.9811 29.7067 21.7889 29.5283 21.6844L18.4423 17.9839C18.4423 17.9839 18.3532 17.9547 18.3086 17.9547L18.3239 17.9533Z" fill="white"/>
<path d="M18.4131 31.2838C18.2947 31.0901 18.2055 30.8226 18.1302 30.5997L17.6552 29.173C17.194 29.4698 16.7189 29.6634 16.2285 29.708H15.9763H15.7088C13.7764 29.5144 11.7562 26.9884 10.6109 23.0358H15.6043L14.8617 20.8066H10.1066C9.83911 19.32 9.67611 17.715 9.67611 15.9763C9.67611 14.2375 9.83912 12.6325 10.1066 11.1459H21.8767C22.1149 12.4388 22.2487 13.8502 22.2779 15.3368L24.5364 16.0947V15.9763C24.5364 14.2821 24.4026 12.6617 24.1505 11.1459H28.8317C29.4113 12.6617 29.7387 14.2821 29.7387 15.9763C29.7387 16.5851 29.6942 17.1954 29.6203 17.7889L30.6611 18.1302C30.8241 18.1901 31.1069 18.2793 31.4343 18.4715C31.5528 18.5314 31.6419 18.6053 31.7618 18.6791C31.9108 17.7875 32 16.8958 32 15.9749C32 7.38556 25.0157 0.221503 16.5448 0.029258C16.4111 0.0139327 16.2327 0 16.0836 0H15.9945C15.8161 0 15.6671 8.10505e-08 15.6225 0.0153258H15.5626H15.5333C6.94114 0.282828 0 7.41621 0 15.9763C0 24.5363 6.98429 31.7296 15.4552 31.9219C15.6182 31.9372 15.7965 31.9511 15.9749 31.9511H16.3761C17.1633 31.9358 17.9365 31.862 18.7098 31.7282C18.6053 31.5791 18.4869 31.4607 18.3977 31.3116L18.4131 31.2838ZM27.7311 8.91672H23.6739C23.1097 6.70287 22.2765 4.78578 21.2511 3.31452C23.9554 4.45835 26.2152 6.43537 27.7311 8.91672ZM15.7241 2.22917H15.9763H16.2438C18.1763 2.42283 20.1964 4.94877 21.3417 8.90138H10.6124C11.7562 4.94877 13.7778 2.42142 15.7242 2.21384L15.7241 2.22917ZM10.7001 3.32982C9.67468 4.81641 8.85684 6.71817 8.29259 8.91811H4.23548C5.73599 6.45067 7.99584 4.47508 10.7001 3.32982ZM2.22921 15.9762C2.22921 14.2821 2.55663 12.6617 3.13622 11.1459H7.81751C7.56533 12.6617 7.43159 14.2821 7.43159 15.9762C7.43159 17.6704 7.56534 19.2908 7.81751 20.8066H3.13622C2.55664 19.2908 2.22921 17.6704 2.22921 15.9762ZM4.22153 23.0358H8.27864C8.8429 25.2496 9.67607 27.1667 10.7015 28.638C7.99723 27.4942 5.73738 25.5171 4.22153 23.0358Z" fill="white"/>
</svg>
