<svg width="29" height="29" viewBox="0 0 29 29" fill="none" xmlns="http://www.w3.org/2000/svg">
<path d="M26.1626 12.0654C26.5289 12.2211 26.5289 12.476 26.1626 12.6302L15.167 17.2976C14.7359 17.4531 14.2641 17.4531 13.833 17.2976L2.83742 12.6317C2.4711 12.476 2.4711 12.2196 2.83742 12.0654L13.833 7.39796C14.2641 7.24235 14.7359 7.24235 15.167 7.39796L26.1626 12.0654ZM15.7333 18.6332L21.8126 16.0537V19.23C21.8126 21.3576 18.5386 23.0824 14.5 23.0824C10.4614 23.0824 7.18895 21.3576 7.18895 19.23V16.0522L13.2667 18.6316C14.0599 18.9406 14.9401 18.9406 15.7333 18.6316V18.6332ZM23.2733 21.1928H25.7795V19.5276C25.7853 19.3592 25.7573 19.1914 25.6969 19.0342C25.6365 18.8769 25.5451 18.7334 25.4281 18.6123C25.3111 18.4911 25.1709 18.3948 25.0158 18.3289C24.8608 18.2631 24.694 18.2292 24.5256 18.2292C24.3572 18.2292 24.1904 18.2631 24.0354 18.3289C23.8803 18.3948 23.7401 18.4911 23.6231 18.6123C23.5061 18.7334 23.4147 18.8769 23.3543 19.0342C23.2939 19.1914 23.2659 19.3592 23.2717 19.5276L23.2733 21.1928ZM24.5248 15.6935C24.6921 15.6938 24.8558 15.6444 24.995 15.5517C25.1343 15.459 25.2429 15.327 25.3071 15.1726C25.3714 15.0181 25.3883 14.848 25.3559 14.6839C25.3234 14.5198 25.243 14.3689 25.1248 14.2505C25.0066 14.1321 24.856 14.0514 24.6919 14.0187C24.5278 13.9859 24.3577 14.0026 24.2031 14.0665C24.0485 14.1305 23.9164 14.2389 23.8234 14.378C23.7304 14.5171 23.6808 14.6806 23.6808 14.8479C23.6808 15.0722 23.7699 15.2872 23.9285 15.4458C24.087 15.6044 24.3021 15.6935 24.5264 15.6935H24.5248ZM24.5248 17.8532C24.6921 17.8535 24.8557 17.8042 24.9949 17.7116C25.1341 17.6189 25.2427 17.487 25.307 17.3326C25.3713 17.1782 25.3883 17.0083 25.356 16.8442C25.3237 16.6801 25.2434 16.5293 25.1254 16.4108C25.0073 16.2923 24.8568 16.2115 24.6928 16.1786C24.5289 16.1457 24.3588 16.1621 24.2042 16.2258C24.0496 16.2896 23.9173 16.3977 23.8241 16.5366C23.731 16.6755 23.6811 16.8389 23.6808 17.0061C23.6806 17.1173 23.7023 17.2274 23.7447 17.3302C23.7871 17.4329 23.8494 17.5263 23.9279 17.605C24.0065 17.6837 24.0997 17.7461 24.2024 17.7887C24.3051 17.8313 24.4152 17.8532 24.5264 17.8532H24.5248Z" fill="#24B7D8"/>
</svg>
