<svg width="24" height="21" viewBox="0 0 24 21" fill="none" xmlns="http://www.w3.org/2000/svg">
<path d="M12.6348 18.2976L12.201 19.1368C11.9483 19.6256 11.8219 19.87 11.6513 19.9487C11.5027 20.0171 11.3305 20.0171 11.1819 19.9487C11.0112 19.87 10.8848 19.6256 10.6322 19.1368L9.32228 16.6029C9.201 16.3682 9.14034 16.2509 9.0472 16.1782C8.96512 16.1141 8.86586 16.0743 8.76122 16.0635C8.64248 16.0514 8.51456 16.0931 8.25872 16.1767L5.39724 17.1111C4.83987 17.2931 4.56118 17.3841 4.38033 17.3195C4.22307 17.2634 4.10076 17.1404 4.04818 16.9855C3.98773 16.8074 4.09011 16.5391 4.29487 16.0025L5.24961 13.5006C5.35002 13.2374 5.40023 13.1058 5.38841 12.9841C5.37799 12.8768 5.33456 12.7751 5.26378 12.6924C5.18339 12.5984 5.05214 12.5403 4.78966 12.4242L2.19959 11.2785C1.64051 11.0312 1.36098 10.9075 1.27427 10.7362C1.19894 10.5873 1.19894 10.4127 1.27427 10.2637C1.36098 10.0924 1.64052 9.96874 2.19959 9.72141L4.78966 8.5757C5.05214 8.45962 5.18339 8.40158 5.26378 8.30754C5.33456 8.22477 5.37799 8.12311 5.38841 8.01588C5.40023 7.8941 5.35002 7.76252 5.24961 7.49936L4.29487 4.99744C4.09011 4.46084 3.98773 4.19255 4.04818 4.01446C4.10076 3.85961 4.22307 3.7366 4.38033 3.68045C4.56118 3.61588 4.83987 3.70689 5.39724 3.88889L8.25872 4.82328C8.51455 4.90681 8.64248 4.94858 8.76122 4.93642C8.86586 4.9257 8.96512 4.8859 9.0472 4.82181C9.14034 4.74906 9.201 4.63171 9.32228 4.39702L10.6322 1.86315C10.8848 1.37432 11.0112 1.12992 11.1819 1.05131C11.3305 0.982896 11.5027 0.982896 11.6513 1.05131C11.8219 1.12992 11.9483 1.37432 12.201 1.86315L12.6348 2.70233M8.96203 8.36225C8.44058 8.9296 8.12351 9.67876 8.12351 10.5C8.12351 11.3213 8.44058 12.0704 8.96203 12.6377M22.3935 10.5C22.3935 13.4515 19.9362 15.8443 16.905 15.8443C13.8739 15.8443 11.4166 13.4515 11.4166 10.5C11.4166 7.54839 13.8739 5.15567 16.905 5.15567C19.9362 5.15567 22.3935 7.54839 22.3935 10.5Z" stroke="#2ED9FF" stroke-width="2" stroke-linecap="round" stroke-linejoin="round"/>
</svg>
