<svg width="9" height="11" viewBox="0 0 9 11" fill="none" xmlns="http://www.w3.org/2000/svg">
<path fill-rule="evenodd" clip-rule="evenodd" d="M8.10545 7.1096C8.01503 9.26901 6.23653 10.9921 4.0549 10.9921C1.81543 10.9921 2.84643e-06 9.11562 2.84643e-06 6.93718C2.84643e-06 6.64601 -0.00521678 6.06409 0.431375 5.08228C0.692658 4.49471 0.856536 4.12558 0.949022 3.78817C0.999838 3.60272 1.09867 3.30809 1.38039 3.78817C1.54652 4.07123 1.55294 4.47836 1.55294 4.47836C1.55294 4.47836 2.17101 4.00407 2.58824 3.09797C3.19988 1.76964 2.71187 0.975616 2.5451 0.423459C2.48738 0.232447 2.45115 -0.110839 2.84706 0.0352239C3.25048 0.184091 4.31701 0.930667 4.87451 1.71758C5.67018 2.84066 5.95294 3.91758 5.95294 3.91758C5.95294 3.91758 6.20771 3.60138 6.29804 3.27052C6.40006 2.89691 6.40157 2.52688 6.72937 2.92546C7.04112 3.30451 7.50412 4.01684 7.76471 4.69405C8.23788 5.92385 8.10545 7.1096 8.10545 7.1096Z" fill="url(#paint0_linear_3554_1731)"/>
<path fill-rule="evenodd" clip-rule="evenodd" d="M4.0549 10.9919C2.50631 10.9919 1.25098 9.73659 1.25098 8.188C1.25098 7.25361 1.62752 6.68631 2.4112 5.917C2.91297 5.42442 3.3826 4.81942 3.5822 4.40746C3.6215 4.32636 3.71092 3.90374 4.05572 4.39857C4.23659 4.65808 4.52013 5.11961 4.70196 5.5135C5.01539 6.19261 5.09019 6.85075 5.09019 6.85075C5.09019 6.85075 5.39737 6.66975 5.60784 6.20369C5.67569 6.05349 5.81287 5.48485 6.19636 6.0534C6.47775 6.47062 6.8643 7.22078 6.85882 8.188C6.85882 9.73659 5.60344 10.9919 4.0549 10.9919Z" fill="#FC9502"/>
<path fill-rule="evenodd" clip-rule="evenodd" d="M4.09813 7.92969C4.49715 7.92969 4.49715 8.66859 5.00401 9.65518C5.34152 10.3121 4.83668 10.9924 4.09813 10.9924C3.35958 10.9924 2.97656 10.3937 2.97656 9.65518C2.97656 8.91667 3.69911 7.92969 4.09813 7.92969Z" fill="#FCE202"/>
<defs>
<linearGradient id="paint0_linear_3554_1731" x1="4.06099" y1="11.0002" x2="4.06099" y2="0.00830622" gradientUnits="userSpaceOnUse">
<stop stop-color="#FF4C0D"/>
<stop offset="1" stop-color="#FC9502"/>
</linearGradient>
</defs>
</svg>
