<svg width="27" height="27" viewBox="0 0 27 27" fill="none" xmlns="http://www.w3.org/2000/svg">
<path d="M16.875 21.375H10.125C9.44999 21.375 8.99999 20.925 8.99999 20.25V19.6875C8.99999 18.1125 8.325 16.5375 7.0875 15.3C5.2875 13.5 4.38749 11.1375 4.49999 8.6625C4.72499 3.9375 8.66249 0.1125 13.3875 0H13.5C18.45 0 22.5 4.05 22.5 9C22.5 11.3625 21.6 13.725 19.8 15.4125C18.5625 16.5375 18 18.1125 18 19.6875V20.25C18 20.925 17.55 21.375 16.875 21.375ZM11.25 19.125H15.75C15.8625 17.1 16.7625 15.3 18.225 13.725C19.575 12.4875 20.25 10.8 20.25 9C20.25 5.2875 17.2125 2.25 13.5 2.25H13.3875C9.89999 2.3625 6.86249 5.175 6.74999 8.775C6.6375 10.575 7.42499 12.375 8.66249 13.725C10.2375 15.3 11.1375 17.2125 11.25 19.125Z" fill="#2ED9FF"/>
<path d="M13.5 27C11.025 27 9 24.975 9 22.5V20.25C9 19.575 9.45 19.125 10.125 19.125H16.875C17.55 19.125 18 19.575 18 20.25V22.5C18 24.975 15.975 27 13.5 27ZM11.25 21.375V22.5C11.25 23.7375 12.2625 24.75 13.5 24.75C14.7375 24.75 15.75 23.7375 15.75 22.5V21.375H11.25Z" fill="#2ED9FF"/>
<path d="M10.125 10.125C9.45 10.125 9 9.675 9 9C9 6.525 11.025 4.5 13.5 4.5C14.175 4.5 14.625 4.95 14.625 5.625C14.625 6.3 14.175 6.75 13.5 6.75C12.2625 6.75 11.25 7.7625 11.25 9C11.25 9.675 10.8 10.125 10.125 10.125Z" fill="#2ED9FF"/>
</svg>
