<svg width="29" height="29" viewBox="0 0 29 29" fill="none" xmlns="http://www.w3.org/2000/svg">
<path d="M15.8194 14.3941L19.3925 10.8211L7.85167 4.33475C7.08679 3.9215 6.37025 3.8635 5.74192 4.31542L15.8194 14.3941ZM20.0015 18.5774L23.7159 16.4882C24.4409 16.0822 24.8384 15.507 24.8384 14.869C24.8384 14.2322 24.4409 13.6558 23.7171 13.2498L20.3543 11.3612L16.5686 15.1457L20.0015 18.5774ZM5.12083 5.19388C5.0435 5.43192 5 5.69775 5 5.98896V23.7575C5 24.2179 5.1015 24.6142 5.28517 24.9296L15.069 15.1445L5.12083 5.19388ZM15.8194 15.8937L6.08992 25.6244C6.276 25.6957 6.47658 25.7331 6.68804 25.7331C7.06504 25.7331 7.45775 25.622 7.85771 25.3996L19.0408 19.1199L15.8194 15.8937Z" fill="white"/>
</svg>
