<svg width="22" height="22" viewBox="0 0 22 22" fill="none" xmlns="http://www.w3.org/2000/svg">
<g clip-path="url(#clip0_3471_1708)">
<path fill-rule="evenodd" clip-rule="evenodd" d="M3.41371 7.74694L6.68123 6.59369C6.0066 7.50198 5.42703 8.47745 4.95181 9.50482L3.41371 7.74694ZM1.14333 7.93631L4.17058 11.396L3.73209 12.4922C3.59591 12.8327 3.67572 13.2215 3.93501 13.4809L4.2225 13.7683C2.66133 15.5287 1.799 17.3698 0.963571 19.8762C0.853772 20.2055 0.939499 20.5687 1.18501 20.8142C1.43053 21.0597 1.79368 21.1455 2.12307 21.0357C4.62937 20.2002 6.47051 19.3379 8.23087 17.7767L8.51834 18.0642C8.77764 18.3235 9.1665 18.4033 9.50698 18.2671L10.6032 17.8286L14.0629 20.8559C14.2917 21.0561 14.6048 21.1298 14.8989 21.0527C15.1931 20.9756 15.4297 20.7578 15.5309 20.4711L18.2682 12.7155C20.0728 10.5802 21.0832 7.85957 21.0832 5.0234V1.83268C21.0832 1.32643 20.6728 0.916016 20.1665 0.916016H16.9758C14.1396 0.916016 11.419 1.92641 9.28368 3.73101L1.52811 6.46828C1.24143 6.56946 1.02356 6.80619 0.946484 7.10027C0.869401 7.39436 0.943139 7.70752 1.14333 7.93631ZM3.37803 18.6212C3.95323 17.2319 4.59878 16.1262 5.52146 15.0673L6.93191 16.4777C5.87306 17.4004 4.76729 18.0459 3.37803 18.6212ZM9.38726 16.3404L8.89805 15.8512L6.14805 13.1012L5.65878 12.6119L6.30953 10.985C6.90662 9.49235 7.74511 8.10788 8.79142 6.88719L9.31998 6.27053C11.2356 4.03561 14.0322 2.74935 16.9758 2.74935H19.2499V5.0234C19.2499 7.96698 17.9636 10.7636 15.7287 12.6792L15.112 13.2078C13.8913 14.2541 12.5069 15.0925 11.0142 15.6897L9.38726 16.3404ZM14.2523 18.5855L12.4944 17.0474C13.5218 16.5722 14.4972 15.9926 15.4055 15.318L14.2523 18.5855ZM13.7499 7.33268C13.7499 6.82643 14.1603 6.41602 14.6665 6.41602C15.1728 6.41602 15.5832 6.82643 15.5832 7.33268C15.5832 7.83894 15.1728 8.24935 14.6665 8.24935C14.1603 8.24935 13.7499 7.83894 13.7499 7.33268ZM14.6665 4.58268C13.1477 4.58268 11.9165 5.8139 11.9165 7.33268C11.9165 8.85146 13.1477 10.0827 14.6665 10.0827C16.1854 10.0827 17.4165 8.85146 17.4165 7.33268C17.4165 5.8139 16.1854 4.58268 14.6665 4.58268Z" fill="#35D9FD"/>
</g>
<defs>
<clipPath id="clip0_3471_1708">
<rect width="22" height="22" fill="white"/>
</clipPath>
</defs>
</svg>
