<svg width="160" height="48" viewBox="0 0 160 48" fill="none" xmlns="http://www.w3.org/2000/svg">
<path d="M160 43.3188L157.525 43.3188V36.7241L148.75 45.5L147 43.7504L155.776 34.9745H148.964V32.5L160 32.5V43.3188Z" fill="#00D4FF"/>
<path d="M123.902 1.5C129.65 1.5 134.375 2.66292 138.076 4.98877C141.778 7.27154 143.672 10.6742 143.759 15.1966V15.9719H130.238V15.7135C130.238 14.4213 129.759 13.3446 128.801 12.4831C127.843 11.6217 126.384 11.191 124.425 11.191C122.509 11.191 121.028 11.471 119.983 12.0309C118.981 12.5908 118.481 13.28 118.481 14.0983C118.481 15.2612 119.177 16.1227 120.571 16.6826C121.964 17.2425 124.207 17.824 127.299 18.427C130.913 19.1592 133.874 19.9345 136.182 20.7528C138.533 21.5281 140.58 22.8202 142.322 24.6292C144.064 26.4382 144.956 28.8933 145 31.9944C145 37.2491 143.193 41.147 139.579 43.6882C136.008 46.2294 131.218 47.5 125.208 47.5C118.198 47.5 112.733 46.3371 108.813 44.0112C104.938 41.6854 103 37.5721 103 31.6713H116.652C116.652 33.911 117.24 35.4185 118.415 36.1938C119.591 36.926 121.42 37.2921 123.902 37.2921C125.731 37.2921 127.233 37.0983 128.409 36.7107C129.628 36.323 130.238 35.5262 130.238 34.3202C130.238 33.2434 129.563 32.4466 128.213 31.9298C126.907 31.3699 124.751 30.7884 121.746 30.1854C118.089 29.4101 115.062 28.6133 112.667 27.7949C110.272 26.9335 108.182 25.5337 106.397 23.5955C104.611 21.6573 103.719 19.03 103.719 15.7135C103.719 10.8464 105.613 7.27154 109.401 4.98877C113.233 2.66292 118.067 1.5 123.902 1.5Z" fill="#00D4FF"/>
<path d="M101 47.5H83.6873L75.4832 33.5029H75.2248L67.0207 47.5H51L69.7985 23.7573L52.5504 2.5H69.7985L76.5168 14.0116H76.7752L83.5581 2.5H99.5142L83.5581 23.7573L101 47.5Z" fill="#00D4FF"/>
<path d="M33.7959 0.5V0.505371C33.7963 0.50257 33.7989 0.500427 33.8017 0.500977C40.168 1.7521 48 5.50269 48 14.5L47.5102 47.5H33.3061L33.6529 14.25H13.7143V47.5H0V14C0 12.3431 1.31573 11 2.93878 11H11.2653L19.202 1.54785C19.7603 0.882914 20.5755 0.5 21.4334 0.5H33.7959Z" fill="#00D4FF"/>
</svg>
